# xmcd
#
# Track frame offsets:
#	182
#	20312
#	40627
#	58707
#	77742
#	92455
#	112435
#	133010
#	149987
#	170135
#	189420
#	210000
#
# Disc length: 3117 seconds
#
# Revision: 4
# Processed by: cddbd v1.5.2PL0 Copyright (c) Steve Scherf et al.
# Submitted via: audiograbber 1.83.01
#
DISCID=a70c2b0c
DTITLE=Az Yet - Az Yet
DYEAR=1996
DGENRE=Soul
TTITLE0=Last night
TTITLE1=Saved for someone else
TTITLE2=Care for me
TTITLE3=Every little bit of my heart
TTITLE4=Hard to say I'm sorry
TTITLE5=That's all I want
TTITLE6=Secrets
TTITLE7=Through my heart (The arrow)
TTITLE8=I don't want to be lonely
TTITLE9=Sadder than blue
TTITLE10=Inseparable lovers
TTITLE11=Time to end the story
EXTD=
EXTT0=
EXTT1=
EXTT2=
EXTT3=
EXTT4=
EXTT5=
EXTT6=
EXTT7=(The Arrow)
EXTT8=
EXTT9=
EXTT10=
EXTT11=
PLAYORDER=
